<svg width="102" height="98" viewBox="0 0 102 98" fill="none" xmlns="http://www.w3.org/2000/svg">
<path d="M46.875 50.8069L38.9431 42.875L34.625 47.1931L46.875 59.4431L71.375 34.9431L67.0569 30.625L46.875 50.8069Z" fill="#8CE895"/>
<path d="M53 91.875L34.086 81.7902C28.694 78.9216 24.1849 74.6388 21.0426 69.4015C17.9003 64.1642 16.2435 58.1701 16.25 52.0625V12.25C16.2516 10.626 16.8975 9.06907 18.0458 7.92076C19.1941 6.77245 20.7511 6.12662 22.375 6.125H83.625C85.249 6.12662 86.8059 6.77245 87.9543 7.92076C89.1026 9.06907 89.7484 10.626 89.75 12.25V52.0625C89.7565 58.1701 88.0997 64.1642 84.9574 69.4015C81.8152 74.6388 77.3061 78.9216 71.914 81.7902L53 91.875ZM22.375 12.25V52.0625C22.3699 57.0599 23.7259 61.9643 26.2974 66.2494C28.8688 70.5344 32.5587 74.0383 36.9709 76.3849L53 84.9323L69.0291 76.3879C73.4418 74.0411 77.132 70.5368 79.7035 66.2511C82.275 61.9655 83.6307 57.0604 83.625 52.0625V12.25H22.375Z" fill="#8CE895"/>
<path d="M42.875 50.8069L34.9431 42.875L30.625 47.1931L42.875 59.4431L67.375 34.9431L63.0569 30.625L42.875 50.8069Z" fill="black"/>
<path d="M49 91.875L30.086 81.7902C24.694 78.9216 20.1849 74.6388 17.0426 69.4015C13.9003 64.1642 12.2435 58.1701 12.25 52.0625V12.25C12.2516 10.626 12.8975 9.06907 14.0458 7.92076C15.1941 6.77245 16.7511 6.12662 18.375 6.125H79.625C81.249 6.12662 82.8059 6.77245 83.9543 7.92076C85.1026 9.06907 85.7484 10.626 85.75 12.25V52.0625C85.7565 58.1701 84.0997 64.1642 80.9574 69.4015C77.8152 74.6388 73.3061 78.9216 67.914 81.7902L49 91.875ZM18.375 12.25V52.0625C18.3699 57.0599 19.7259 61.9643 22.2974 66.2494C24.8688 70.5344 28.5587 74.0383 32.9709 76.3849L49 84.9323L65.0291 76.3879C69.4418 74.0411 73.132 70.5368 75.7035 66.2511C78.275 61.9655 79.6307 57.0604 79.625 52.0625V12.25H18.375Z" fill="black"/>
</svg>
